<mxfile host="app.diagrams.net" modified="2024-05-21T19:28:57.133Z" agent="Mozilla/5.0 (X11; Linux x86_64) AppleWebKit/537.36 (KHTML, like Gecko) Chrome/121.0.0.0 Safari/537.36" etag="qRnHjGgtHxGtEX26Y-aY" version="24.4.4" type="device" pages="2">
  <diagram name="Page-1" id="8_wEjNGy2tTi05NjekgQ">
    <mxGraphModel dx="1259" dy="724" grid="0" gridSize="10" guides="1" tooltips="1" connect="1" arrows="1" fold="1" page="0" pageScale="1" pageWidth="827" pageHeight="1169" math="0" shadow="0">
      <root>
        <mxCell id="0" />
        <mxCell id="1" parent="0" />
      </root>
    </mxGraphModel>
  </diagram>
  <diagram id="r3TngsG5PnN8sF6l5BtF" name="Page-2">
    <mxGraphModel dx="2158" dy="1609" grid="1" gridSize="10" guides="1" tooltips="1" connect="1" arrows="1" fold="1" page="0" pageScale="1" pageWidth="827" pageHeight="1169" math="0" shadow="0">
      <root>
        <mxCell id="0" />
        <mxCell id="1" parent="0" />
        <mxCell id="bKLBuKbIVLE4KtgaThra-137" value="" style="rounded=0;whiteSpace=wrap;html=1;fillColor=none;dashed=1;strokeWidth=2;" vertex="1" parent="1">
          <mxGeometry x="40" y="-640" width="860" height="700" as="geometry" />
        </mxCell>
        <mxCell id="bKLBuKbIVLE4KtgaThra-12" value="" style="rounded=0;whiteSpace=wrap;html=1;fillColor=none;strokeWidth=2;" vertex="1" parent="1">
          <mxGeometry x="-120" y="-680" width="1120" height="840" as="geometry" />
        </mxCell>
        <mxCell id="bKLBuKbIVLE4KtgaThra-32" value="&lt;font style=&quot;font-size: 20px;&quot;&gt;&lt;b&gt;API GATEWAY&lt;/b&gt;&lt;/font&gt;" style="rounded=1;whiteSpace=wrap;html=1;fillColor=#dae8fc;strokeColor=#6c8ebf;" vertex="1" parent="1">
          <mxGeometry x="-210" y="-320" width="210" height="80" as="geometry" />
        </mxCell>
        <mxCell id="bKLBuKbIVLE4KtgaThra-33" value="&lt;b&gt;&lt;font style=&quot;font-size: 20px;&quot;&gt;CLIENT&lt;/font&gt;&lt;/b&gt;" style="ellipse;shape=cloud;whiteSpace=wrap;html=1;fillColor=#1ba1e2;strokeColor=#006EAF;fontColor=#ffffff;" vertex="1" parent="1">
          <mxGeometry x="-600" y="-350" width="210" height="150" as="geometry" />
        </mxCell>
        <mxCell id="bKLBuKbIVLE4KtgaThra-34" value="&lt;span style=&quot;font-size: 20px;&quot;&gt;&lt;b&gt;User Service&lt;/b&gt;&lt;/span&gt;" style="rounded=1;whiteSpace=wrap;html=1;fillColor=#60a917;fontColor=#ffffff;strokeColor=#2D7600;" vertex="1" parent="1">
          <mxGeometry x="320" y="-620" width="200" height="60" as="geometry" />
        </mxCell>
        <mxCell id="bKLBuKbIVLE4KtgaThra-35" value="&lt;font style=&quot;font-size: 20px;&quot;&gt;&lt;b&gt;Product Service&lt;/b&gt;&lt;/font&gt;" style="rounded=1;whiteSpace=wrap;html=1;fillColor=#1ba1e2;fontColor=#ffffff;strokeColor=#006EAF;" vertex="1" parent="1">
          <mxGeometry x="320" y="-500" width="200" height="60" as="geometry" />
        </mxCell>
        <mxCell id="bKLBuKbIVLE4KtgaThra-36" value="&lt;font style=&quot;font-size: 20px;&quot;&gt;&lt;b&gt;Shipping Service&lt;/b&gt;&lt;/font&gt;" style="rounded=1;whiteSpace=wrap;html=1;fillColor=#b0e3e6;strokeColor=#0e8088;" vertex="1" parent="1">
          <mxGeometry x="320" y="-20" width="200" height="60" as="geometry" />
        </mxCell>
        <mxCell id="bKLBuKbIVLE4KtgaThra-37" value="&lt;font style=&quot;font-size: 20px;&quot;&gt;&lt;b&gt;Payment Service&lt;/b&gt;&lt;/font&gt;" style="rounded=1;whiteSpace=wrap;html=1;fillColor=#b1ddf0;strokeColor=#10739e;" vertex="1" parent="1">
          <mxGeometry x="320" y="-140" width="200" height="60" as="geometry" />
        </mxCell>
        <mxCell id="bKLBuKbIVLE4KtgaThra-38" value="&lt;font style=&quot;font-size: 20px;&quot;&gt;&lt;b&gt;Order Service&lt;/b&gt;&lt;/font&gt;" style="rounded=1;whiteSpace=wrap;html=1;fillColor=#d80073;fontColor=#ffffff;strokeColor=#A50040;" vertex="1" parent="1">
          <mxGeometry x="320" y="-380" width="200" height="60" as="geometry" />
        </mxCell>
        <mxCell id="bKLBuKbIVLE4KtgaThra-39" value="&lt;font style=&quot;font-size: 20px;&quot;&gt;&lt;b&gt;Cart Service&lt;/b&gt;&lt;/font&gt;" style="rounded=1;whiteSpace=wrap;html=1;fillColor=#a20025;fontColor=#ffffff;strokeColor=#6F0000;" vertex="1" parent="1">
          <mxGeometry x="320" y="-260" width="200" height="60" as="geometry" />
        </mxCell>
        <mxCell id="bKLBuKbIVLE4KtgaThra-40" value="Data base" style="shape=cylinder3;whiteSpace=wrap;html=1;boundedLbl=1;backgroundOutline=1;size=15;fillColor=#b1ddf0;strokeColor=#10739e;" vertex="1" parent="1">
          <mxGeometry x="620" y="-620" width="90" height="60" as="geometry" />
        </mxCell>
        <mxCell id="bKLBuKbIVLE4KtgaThra-59" value="" style="endArrow=classic;startArrow=classic;html=1;rounded=0;fontSize=12;startSize=8;endSize=8;curved=1;entryX=0;entryY=0.5;entryDx=0;entryDy=0;exitX=1;exitY=0;exitDx=0;exitDy=0;fillColor=#60a917;strokeColor=#2D7600;" edge="1" parent="1" source="bKLBuKbIVLE4KtgaThra-32" target="bKLBuKbIVLE4KtgaThra-34">
          <mxGeometry width="50" height="50" relative="1" as="geometry">
            <mxPoint x="200" y="-280" as="sourcePoint" />
            <mxPoint x="410" y="-350" as="targetPoint" />
          </mxGeometry>
        </mxCell>
        <mxCell id="bKLBuKbIVLE4KtgaThra-60" value="" style="endArrow=classic;startArrow=classic;html=1;rounded=0;fontSize=12;startSize=8;endSize=8;curved=1;entryX=-0.02;entryY=0.65;entryDx=0;entryDy=0;entryPerimeter=0;exitX=1;exitY=1;exitDx=0;exitDy=0;fillColor=#b0e3e6;strokeColor=#0e8088;" edge="1" parent="1" source="bKLBuKbIVLE4KtgaThra-32" target="bKLBuKbIVLE4KtgaThra-36">
          <mxGeometry width="50" height="50" relative="1" as="geometry">
            <mxPoint x="200" y="-280" as="sourcePoint" />
            <mxPoint x="330" y="-580" as="targetPoint" />
          </mxGeometry>
        </mxCell>
        <mxCell id="bKLBuKbIVLE4KtgaThra-61" value="" style="endArrow=classic;startArrow=classic;html=1;rounded=0;fontSize=12;startSize=8;endSize=8;curved=1;entryX=0;entryY=0.5;entryDx=0;entryDy=0;exitX=1;exitY=0.25;exitDx=0;exitDy=0;fillColor=#1ba1e2;strokeColor=#006EAF;" edge="1" parent="1" source="bKLBuKbIVLE4KtgaThra-32" target="bKLBuKbIVLE4KtgaThra-35">
          <mxGeometry width="50" height="50" relative="1" as="geometry">
            <mxPoint x="200" y="-280" as="sourcePoint" />
            <mxPoint x="240" y="-350" as="targetPoint" />
          </mxGeometry>
        </mxCell>
        <mxCell id="bKLBuKbIVLE4KtgaThra-62" value="" style="endArrow=classic;startArrow=classic;html=1;rounded=0;fontSize=12;startSize=8;endSize=8;curved=1;entryX=0;entryY=0.617;entryDx=0;entryDy=0;entryPerimeter=0;exitX=1;exitY=0.5;exitDx=0;exitDy=0;fillColor=#6a00ff;strokeColor=#3700CC;" edge="1" parent="1" source="bKLBuKbIVLE4KtgaThra-32" target="bKLBuKbIVLE4KtgaThra-38">
          <mxGeometry width="50" height="50" relative="1" as="geometry">
            <mxPoint x="200" y="-280" as="sourcePoint" />
            <mxPoint x="330" y="-460" as="targetPoint" />
          </mxGeometry>
        </mxCell>
        <mxCell id="bKLBuKbIVLE4KtgaThra-63" value="" style="endArrow=classic;startArrow=classic;html=1;rounded=0;fontSize=12;startSize=8;endSize=8;curved=1;entryX=0;entryY=0.5;entryDx=0;entryDy=0;fillColor=#6a00ff;strokeColor=#3700CC;" edge="1" parent="1" source="bKLBuKbIVLE4KtgaThra-32" target="bKLBuKbIVLE4KtgaThra-39">
          <mxGeometry width="50" height="50" relative="1" as="geometry">
            <mxPoint x="210" y="-280" as="sourcePoint" />
            <mxPoint x="240" y="-350" as="targetPoint" />
          </mxGeometry>
        </mxCell>
        <mxCell id="bKLBuKbIVLE4KtgaThra-64" value="" style="endArrow=classic;startArrow=classic;html=1;rounded=0;fontSize=12;startSize=8;endSize=8;curved=1;entryX=0.5;entryY=1;entryDx=0;entryDy=0;exitX=0.5;exitY=0;exitDx=0;exitDy=0;" edge="1" parent="1" source="bKLBuKbIVLE4KtgaThra-35" target="bKLBuKbIVLE4KtgaThra-34">
          <mxGeometry width="50" height="50" relative="1" as="geometry">
            <mxPoint x="330" y="-300" as="sourcePoint" />
            <mxPoint x="380" y="-350" as="targetPoint" />
          </mxGeometry>
        </mxCell>
        <mxCell id="bKLBuKbIVLE4KtgaThra-65" value="" style="endArrow=classic;startArrow=classic;html=1;rounded=0;fontSize=12;startSize=8;endSize=8;curved=1;" edge="1" parent="1" source="bKLBuKbIVLE4KtgaThra-38" target="bKLBuKbIVLE4KtgaThra-35">
          <mxGeometry width="50" height="50" relative="1" as="geometry">
            <mxPoint x="430" y="-490" as="sourcePoint" />
            <mxPoint x="430" y="-550" as="targetPoint" />
          </mxGeometry>
        </mxCell>
        <mxCell id="bKLBuKbIVLE4KtgaThra-70" value="" style="endArrow=classic;startArrow=classic;html=1;rounded=0;fontSize=12;startSize=8;endSize=8;curved=1;exitX=0.5;exitY=0;exitDx=0;exitDy=0;" edge="1" parent="1" source="bKLBuKbIVLE4KtgaThra-39" target="bKLBuKbIVLE4KtgaThra-38">
          <mxGeometry width="50" height="50" relative="1" as="geometry">
            <mxPoint x="480" y="-440" as="sourcePoint" />
            <mxPoint x="480" y="-500" as="targetPoint" />
          </mxGeometry>
        </mxCell>
        <mxCell id="bKLBuKbIVLE4KtgaThra-71" value="" style="endArrow=classic;startArrow=classic;html=1;rounded=0;fontSize=12;startSize=8;endSize=8;curved=1;exitX=0.5;exitY=0;exitDx=0;exitDy=0;entryX=0.5;entryY=1;entryDx=0;entryDy=0;" edge="1" parent="1" source="bKLBuKbIVLE4KtgaThra-37" target="bKLBuKbIVLE4KtgaThra-39">
          <mxGeometry width="50" height="50" relative="1" as="geometry">
            <mxPoint x="430" y="-250" as="sourcePoint" />
            <mxPoint x="430" y="-310" as="targetPoint" />
          </mxGeometry>
        </mxCell>
        <mxCell id="bKLBuKbIVLE4KtgaThra-72" value="" style="endArrow=classic;startArrow=classic;html=1;rounded=0;fontSize=12;startSize=8;endSize=8;curved=1;exitX=0.5;exitY=0;exitDx=0;exitDy=0;entryX=0.5;entryY=1;entryDx=0;entryDy=0;" edge="1" parent="1" source="bKLBuKbIVLE4KtgaThra-36" target="bKLBuKbIVLE4KtgaThra-37">
          <mxGeometry width="50" height="50" relative="1" as="geometry">
            <mxPoint x="430" y="-130" as="sourcePoint" />
            <mxPoint x="430" y="-190" as="targetPoint" />
          </mxGeometry>
        </mxCell>
        <mxCell id="bKLBuKbIVLE4KtgaThra-73" value="Data base" style="shape=cylinder3;whiteSpace=wrap;html=1;boundedLbl=1;backgroundOutline=1;size=15;fillColor=#b1ddf0;strokeColor=#10739e;" vertex="1" parent="1">
          <mxGeometry x="620" y="-500" width="90" height="60" as="geometry" />
        </mxCell>
        <mxCell id="bKLBuKbIVLE4KtgaThra-74" value="Data base" style="shape=cylinder3;whiteSpace=wrap;html=1;boundedLbl=1;backgroundOutline=1;size=15;fillColor=#b1ddf0;strokeColor=#10739e;" vertex="1" parent="1">
          <mxGeometry x="620" y="-380" width="90" height="60" as="geometry" />
        </mxCell>
        <mxCell id="bKLBuKbIVLE4KtgaThra-75" value="Data base" style="shape=cylinder3;whiteSpace=wrap;html=1;boundedLbl=1;backgroundOutline=1;size=15;fillColor=#b1ddf0;strokeColor=#10739e;" vertex="1" parent="1">
          <mxGeometry x="620" y="-20" width="90" height="60" as="geometry" />
        </mxCell>
        <mxCell id="bKLBuKbIVLE4KtgaThra-76" value="Data base" style="shape=cylinder3;whiteSpace=wrap;html=1;boundedLbl=1;backgroundOutline=1;size=15;fillColor=#b1ddf0;strokeColor=#10739e;" vertex="1" parent="1">
          <mxGeometry x="620" y="-140" width="90" height="60" as="geometry" />
        </mxCell>
        <mxCell id="bKLBuKbIVLE4KtgaThra-77" value="Data base" style="shape=cylinder3;whiteSpace=wrap;html=1;boundedLbl=1;backgroundOutline=1;size=15;fillColor=#b1ddf0;strokeColor=#10739e;" vertex="1" parent="1">
          <mxGeometry x="620" y="-260" width="90" height="60" as="geometry" />
        </mxCell>
        <mxCell id="bKLBuKbIVLE4KtgaThra-78" value="" style="endArrow=classic;startArrow=classic;html=1;rounded=0;fontSize=12;startSize=8;endSize=8;curved=1;entryX=0;entryY=0.5;entryDx=0;entryDy=0;entryPerimeter=0;exitX=1;exitY=0.5;exitDx=0;exitDy=0;" edge="1" parent="1" source="bKLBuKbIVLE4KtgaThra-38" target="bKLBuKbIVLE4KtgaThra-74">
          <mxGeometry width="50" height="50" relative="1" as="geometry">
            <mxPoint x="580" y="-300" as="sourcePoint" />
            <mxPoint x="630" y="-350" as="targetPoint" />
          </mxGeometry>
        </mxCell>
        <mxCell id="bKLBuKbIVLE4KtgaThra-79" value="" style="endArrow=classic;startArrow=classic;html=1;rounded=0;fontSize=12;startSize=8;endSize=8;curved=1;entryX=0;entryY=0.5;entryDx=0;entryDy=0;entryPerimeter=0;exitX=1;exitY=0.5;exitDx=0;exitDy=0;" edge="1" parent="1" source="bKLBuKbIVLE4KtgaThra-39" target="bKLBuKbIVLE4KtgaThra-77">
          <mxGeometry width="50" height="50" relative="1" as="geometry">
            <mxPoint x="530" y="-340" as="sourcePoint" />
            <mxPoint x="630" y="-332" as="targetPoint" />
          </mxGeometry>
        </mxCell>
        <mxCell id="bKLBuKbIVLE4KtgaThra-80" value="" style="endArrow=classic;startArrow=classic;html=1;rounded=0;fontSize=12;startSize=8;endSize=8;curved=1;entryX=0;entryY=0.5;entryDx=0;entryDy=0;entryPerimeter=0;exitX=1;exitY=0.5;exitDx=0;exitDy=0;" edge="1" parent="1" source="bKLBuKbIVLE4KtgaThra-37" target="bKLBuKbIVLE4KtgaThra-76">
          <mxGeometry width="50" height="50" relative="1" as="geometry">
            <mxPoint x="530" y="-220" as="sourcePoint" />
            <mxPoint x="630" y="-220" as="targetPoint" />
          </mxGeometry>
        </mxCell>
        <mxCell id="bKLBuKbIVLE4KtgaThra-81" value="" style="endArrow=classic;startArrow=classic;html=1;rounded=0;fontSize=12;startSize=8;endSize=8;curved=1;entryX=0;entryY=0.5;entryDx=0;entryDy=0;entryPerimeter=0;exitX=1;exitY=0.5;exitDx=0;exitDy=0;" edge="1" parent="1" source="bKLBuKbIVLE4KtgaThra-36" target="bKLBuKbIVLE4KtgaThra-75">
          <mxGeometry width="50" height="50" relative="1" as="geometry">
            <mxPoint x="530" y="-100" as="sourcePoint" />
            <mxPoint x="630" y="-100" as="targetPoint" />
          </mxGeometry>
        </mxCell>
        <mxCell id="bKLBuKbIVLE4KtgaThra-82" value="" style="endArrow=classic;startArrow=classic;html=1;rounded=0;fontSize=12;startSize=8;endSize=8;curved=1;entryX=0;entryY=0.5;entryDx=0;entryDy=0;entryPerimeter=0;exitX=1;exitY=0.5;exitDx=0;exitDy=0;" edge="1" parent="1" source="bKLBuKbIVLE4KtgaThra-34" target="bKLBuKbIVLE4KtgaThra-40">
          <mxGeometry width="50" height="50" relative="1" as="geometry">
            <mxPoint x="530" y="-340" as="sourcePoint" />
            <mxPoint x="630" y="-340" as="targetPoint" />
          </mxGeometry>
        </mxCell>
        <mxCell id="bKLBuKbIVLE4KtgaThra-83" value="" style="endArrow=classic;startArrow=classic;html=1;rounded=0;fontSize=12;startSize=8;endSize=8;curved=1;entryX=0;entryY=0.5;entryDx=0;entryDy=0;entryPerimeter=0;exitX=1;exitY=0.5;exitDx=0;exitDy=0;" edge="1" parent="1" source="bKLBuKbIVLE4KtgaThra-35" target="bKLBuKbIVLE4KtgaThra-73">
          <mxGeometry width="50" height="50" relative="1" as="geometry">
            <mxPoint x="540" y="-330" as="sourcePoint" />
            <mxPoint x="640" y="-330" as="targetPoint" />
          </mxGeometry>
        </mxCell>
        <mxCell id="bKLBuKbIVLE4KtgaThra-86" value="" style="endArrow=classic;html=1;rounded=0;fontSize=12;curved=1;entryX=0.036;entryY=0.5;entryDx=0;entryDy=0;entryPerimeter=0;fillColor=#fa6800;strokeColor=#C73500;shape=flexArrow;" edge="1" parent="1">
          <mxGeometry width="50" height="50" relative="1" as="geometry">
            <mxPoint x="-390" y="-300.5" as="sourcePoint" />
            <mxPoint x="-229.68000000000006" y="-300.5" as="targetPoint" />
          </mxGeometry>
        </mxCell>
        <mxCell id="bKLBuKbIVLE4KtgaThra-87" value="" style="shape=flexArrow;endArrow=classic;html=1;rounded=0;fontSize=12;startSize=8;endSize=8;curved=1;fillColor=#fa6800;strokeColor=#C73500;" edge="1" parent="1">
          <mxGeometry width="50" height="50" relative="1" as="geometry">
            <mxPoint x="-230" y="-250" as="sourcePoint" />
            <mxPoint x="-390" y="-250" as="targetPoint" />
          </mxGeometry>
        </mxCell>
        <mxCell id="bKLBuKbIVLE4KtgaThra-89" value="&lt;span style=&quot;font-size: 20px;&quot;&gt;&lt;b&gt;EUREKA SERVER&lt;/b&gt;&lt;/span&gt;" style="rounded=1;whiteSpace=wrap;html=1;fillColor=#eeeeee;strokeColor=#36393d;" vertex="1" parent="1">
          <mxGeometry x="70" y="120" width="210" height="80" as="geometry" />
        </mxCell>
        <mxCell id="bKLBuKbIVLE4KtgaThra-139" value="&lt;span style=&quot;font-size: 20px;&quot;&gt;&lt;b&gt;CONFIG SERVER&lt;/b&gt;&lt;/span&gt;" style="rounded=1;whiteSpace=wrap;html=1;fillColor=#f9f7ed;strokeColor=#36393d;" vertex="1" parent="1">
          <mxGeometry x="480" y="120" width="210" height="80" as="geometry" />
        </mxCell>
        <mxCell id="bKLBuKbIVLE4KtgaThra-140" value="&lt;font style=&quot;font-size: 20px;&quot;&gt;ZIPKIN&lt;/font&gt;" style="strokeWidth=2;html=1;shape=mxgraph.flowchart.decision;whiteSpace=wrap;fillColor=#ffcc99;strokeColor=#36393d;" vertex="1" parent="1">
          <mxGeometry x="850" y="-330" width="100" height="100" as="geometry" />
        </mxCell>
        <mxCell id="bKLBuKbIVLE4KtgaThra-141" value="" style="endArrow=classic;html=1;rounded=0;fontSize=12;startSize=8;endSize=8;curved=1;entryX=0.5;entryY=0;entryDx=0;entryDy=0;exitX=0.254;exitY=0.881;exitDx=0;exitDy=0;exitPerimeter=0;" edge="1" parent="1" source="bKLBuKbIVLE4KtgaThra-12" target="bKLBuKbIVLE4KtgaThra-89">
          <mxGeometry width="50" height="50" relative="1" as="geometry">
            <mxPoint x="110" y="-110" as="sourcePoint" />
            <mxPoint x="160" y="-160" as="targetPoint" />
          </mxGeometry>
        </mxCell>
        <mxCell id="bKLBuKbIVLE4KtgaThra-144" value="&lt;b&gt;&lt;font style=&quot;font-size: 20px;&quot;&gt;REGISTER&lt;/font&gt;&lt;/b&gt;" style="edgeLabel;html=1;align=center;verticalAlign=middle;resizable=0;points=[];fontSize=12;" vertex="1" connectable="0" parent="bKLBuKbIVLE4KtgaThra-141">
          <mxGeometry x="-0.2008" relative="1" as="geometry">
            <mxPoint as="offset" />
          </mxGeometry>
        </mxCell>
        <mxCell id="bKLBuKbIVLE4KtgaThra-142" value="" style="endArrow=classic;html=1;rounded=0;fontSize=12;startSize=8;endSize=8;curved=1;entryX=0.5;entryY=0;entryDx=0;entryDy=0;exitX=0.5;exitY=0;exitDx=0;exitDy=0;" edge="1" parent="1" source="bKLBuKbIVLE4KtgaThra-139">
          <mxGeometry width="50" height="50" relative="1" as="geometry">
            <mxPoint x="584.5" as="sourcePoint" />
            <mxPoint x="584.5" y="60" as="targetPoint" />
          </mxGeometry>
        </mxCell>
        <mxCell id="bKLBuKbIVLE4KtgaThra-145" value="&lt;span style=&quot;font-size: 20px;&quot;&gt;&lt;b&gt;PULL CONFIGURATION&lt;/b&gt;&lt;/span&gt;" style="edgeLabel;html=1;align=center;verticalAlign=middle;resizable=0;points=[];fontSize=12;" vertex="1" connectable="0" parent="1">
          <mxGeometry x="320.0040934669221" y="94.03956743511822" as="geometry">
            <mxPoint x="258" y="1" as="offset" />
          </mxGeometry>
        </mxCell>
        <mxCell id="bKLBuKbIVLE4KtgaThra-146" value="" style="edgeStyle=segmentEdgeStyle;endArrow=classic;html=1;curved=0;rounded=0;endSize=8;startSize=8;fontSize=12;exitX=0.419;exitY=1.025;exitDx=0;exitDy=0;exitPerimeter=0;" edge="1" parent="1" source="bKLBuKbIVLE4KtgaThra-89">
          <mxGeometry width="50" height="50" relative="1" as="geometry">
            <mxPoint x="160" y="250" as="sourcePoint" />
            <mxPoint x="580" y="200" as="targetPoint" />
            <Array as="points">
              <mxPoint x="158" y="240" />
              <mxPoint x="580" y="240" />
            </Array>
          </mxGeometry>
        </mxCell>
        <mxCell id="bKLBuKbIVLE4KtgaThra-147" value="&lt;b&gt;&lt;font style=&quot;font-size: 20px;&quot;&gt;PULL CONFIGURATION&lt;/font&gt;&lt;/b&gt;" style="edgeLabel;html=1;align=center;verticalAlign=middle;resizable=0;points=[];fontSize=12;" vertex="1" connectable="0" parent="bKLBuKbIVLE4KtgaThra-146">
          <mxGeometry x="-0.092" y="-4" relative="1" as="geometry">
            <mxPoint x="2" y="-6" as="offset" />
          </mxGeometry>
        </mxCell>
        <mxCell id="bKLBuKbIVLE4KtgaThra-151" value="" style="endArrow=classic;html=1;rounded=0;fontSize=12;startSize=8;endSize=8;curved=1;entryX=0;entryY=0.5;entryDx=0;entryDy=0;entryPerimeter=0;dashed=1;" edge="1" parent="1" target="bKLBuKbIVLE4KtgaThra-140">
          <mxGeometry width="50" height="50" relative="1" as="geometry">
            <mxPoint x="420" y="-290" as="sourcePoint" />
            <mxPoint x="330" y="-310" as="targetPoint" />
          </mxGeometry>
        </mxCell>
        <mxCell id="bKLBuKbIVLE4KtgaThra-152" value="" style="endArrow=classic;html=1;rounded=1;fontSize=12;startSize=8;endSize=8;entryX=0;entryY=0.5;entryDx=0;entryDy=0;entryPerimeter=0;edgeStyle=orthogonalEdgeStyle;curved=0;dashed=1;" edge="1" parent="1">
          <mxGeometry width="50" height="50" relative="1" as="geometry">
            <mxPoint x="420" y="-160" as="sourcePoint" />
            <mxPoint x="860" y="-270" as="targetPoint" />
          </mxGeometry>
        </mxCell>
        <mxCell id="bKLBuKbIVLE4KtgaThra-153" value="" style="endArrow=classic;html=1;rounded=1;fontSize=12;startSize=8;endSize=8;entryX=0;entryY=0.5;entryDx=0;entryDy=0;entryPerimeter=0;edgeStyle=orthogonalEdgeStyle;curved=0;dashed=1;" edge="1" parent="1">
          <mxGeometry width="50" height="50" relative="1" as="geometry">
            <mxPoint x="420" y="-40" as="sourcePoint" />
            <mxPoint x="870" y="-260" as="targetPoint" />
          </mxGeometry>
        </mxCell>
        <mxCell id="bKLBuKbIVLE4KtgaThra-154" value="" style="endArrow=classic;html=1;rounded=1;fontSize=12;startSize=8;endSize=8;entryX=0.1;entryY=0.39;entryDx=0;entryDy=0;entryPerimeter=0;edgeStyle=orthogonalEdgeStyle;curved=0;dashed=1;" edge="1" parent="1" target="bKLBuKbIVLE4KtgaThra-140">
          <mxGeometry width="50" height="50" relative="1" as="geometry">
            <mxPoint x="420" y="-410" as="sourcePoint" />
            <mxPoint x="880" y="-250" as="targetPoint" />
          </mxGeometry>
        </mxCell>
        <mxCell id="bKLBuKbIVLE4KtgaThra-155" value="" style="endArrow=classic;html=1;rounded=1;fontSize=12;startSize=8;endSize=8;entryX=0.21;entryY=0.26;entryDx=0;entryDy=0;entryPerimeter=0;edgeStyle=orthogonalEdgeStyle;strokeColor=default;curved=0;dashed=1;" edge="1" parent="1" target="bKLBuKbIVLE4KtgaThra-140">
          <mxGeometry width="50" height="50" relative="1" as="geometry">
            <mxPoint x="420" y="-530" as="sourcePoint" />
            <mxPoint x="890" y="-240" as="targetPoint" />
          </mxGeometry>
        </mxCell>
        <mxCell id="bKLBuKbIVLE4KtgaThra-157" value="" style="endArrow=classic;startArrow=classic;html=1;rounded=0;fontSize=12;startSize=8;endSize=8;curved=1;entryX=-0.02;entryY=0.65;entryDx=0;entryDy=0;entryPerimeter=0;exitX=0.995;exitY=0.838;exitDx=0;exitDy=0;fillColor=#b1ddf0;strokeColor=#10739e;exitPerimeter=0;" edge="1" parent="1" source="bKLBuKbIVLE4KtgaThra-32">
          <mxGeometry width="50" height="50" relative="1" as="geometry">
            <mxPoint x="4" y="-370" as="sourcePoint" />
            <mxPoint x="320" y="-111" as="targetPoint" />
          </mxGeometry>
        </mxCell>
      </root>
    </mxGraphModel>
  </diagram>
</mxfile>
